:version 1.10
:name ASF
:units
  mass 1
  length 1
  angle deg
:documentation
  ASF file generated by Kaydara
:root
  axis xyz
  order  tx ty tz rx ry rz
  position 0 0 0
  orientation 0 0 0
:bonedata
  begin
    id 1
    name RightUpLegDummy
    direction -1 2.30186e-007 8.31532e-007
    length 4.46685
    axis 0 0 0 xyz
  end
  begin
    id 2
    name RightUpLeg
    direction -2.30187e-007 -1 1.24343e-010
    length 16.4045
    axis -3.49089 -0.000906625 0.000286804 xyz
    dof rx ry rz
  end
  begin
    id 3
    name RightLeg
    direction -2.30181e-007 -1 -4.17157e-009
    length 17.5097
    axis 3.68512 0.0193738 -0.131023 xyz
    dof rx ry rz
  end
  begin
    id 4
    name RightFoot
    direction 8.31421e-007 -4.51202e-011 1
    length 6.49508
    axis 4.81691e-005 -0.120479 -0.188788 xyz
    dof rx ry rz
  end
  begin
    id 5
    name RightToes
    direction 0.00124746 -0.014064 0.9999
    length 3.85082
    axis 0.000481921 0.542163 -0.142578 xyz
    dof rx ry rz
  end
  begin
    id 6
    name SpineDummy
    direction 0.0717043 0.9409 -0.331007
    length 10.0032
    axis 0 0 0 xyz
  end
  begin
    id 7
    name Spine
    direction 2.30186e-007 1 4.58806e-011
    length 9.84055
    axis -0.001389 0.000121418 2.40972e-006 xyz
    dof rx ry rz
  end
  begin
    id 8
    name Spine1
    direction 0 0 0
    length 0
    axis -0.001389 0.000121451 1.30017e-006 xyz
    dof rx ry rz
  end
  begin
    id 9
    name HEadDummy
    direction -0.00347485 0.950688 -0.310128
    length 8.00997
    axis -0.001389 0.000121451 1.30017e-006 xyz
  end
  begin
    id 10
    name HEad
    direction -0.0222688 0.980941 0.193023
    length 5.12695
    axis -0.001389 0.000121451 1.30017e-006 xyz
    dof rx ry rz
  end
  begin
    id 11
    name LeftShoulder1Dummy
    direction 0.988871 0.146793 -0.0242004
    length 3.5792
    axis -0.001389 0.000121451 1.30017e-006 xyz
  end
  begin
    id 12
    name LeftShoulder1
    direction 0.993832 0.108932 0.020779
    length 4.16823
    axis -0.001389 0.000121451 1.30017e-006 xyz
    dof rx ry rz
  end
  begin
    id 13
    name LeftArm
    direction 1 3.44807e-006 -8.31404e-007
    length 9.91437
    axis -23.1894 0.134784 0.967509 xyz
    dof rx ry rz
  end
  begin
    id 14
    name LeftForeArm
    direction 1 3.44842e-006 -8.31581e-007
    length 9.08575
    axis -9.91835 -0.06569 -0.177793 xyz
    dof rx ry rz
  end
  begin
    id 15
    name LeftHand
    direction 0.992938 -0.0411636 0.11126
    length 5.32135
    axis -0.00960232 -0.00340091 0.185173 xyz
    dof rx ry rz
  end
  begin
    id 16
    name RightShoulderDummy
    direction -0.988871 0.146793 -0.0241962
    length 3.5792
    axis -0.001389 0.000121451 1.30017e-006 xyz
  end
  begin
    id 17
    name RightShoulder
    direction -0.993832 0.108933 0.0207785
    length 4.16823
    axis 0.215806 0.000203643 -0.0068026 xyz
    dof rx ry rz
  end
  begin
    id 18
    name RightArm
    direction -1 3.90912e-006 8.31284e-007
    length 9.91437
    axis -23.2009 -0.134239 -0.964101 xyz
    dof rx ry rz
  end
  begin
    id 19
    name RightForeArm
    direction -1 3.90882e-006 8.31502e-007
    length 9.08575
    axis -9.92322 0.0658061 0.178867 xyz
    dof rx ry rz
  end
  begin
    id 20
    name RightHand
    direction -0.992843 -0.0414603 0.112003
    length 5.28593
    axis -0.00960638 0.00330671 -0.185228 xyz
    dof rx ry rz
  end
  begin
    id 21
    name LeftUpLegDummy
    direction 1 -2.30186e-007 -8.31532e-007
    length 4.46685
    axis 0 0 0 xyz
  end
  begin
    id 22
    name LeftUpLeg
    direction -2.30187e-007 -1 6.00931e-010
    length 16.4045
    axis -3.48766 0.00143442 -0.000524262 xyz
    dof rx ry rz
  end
  begin
    id 23
    name LeftLeg
    direction -2.30187e-007 -1 1.6669e-009
    length 17.5097
    axis 3.68178 -0.00654042 -0.000285133 xyz
    dof rx ry rz
  end
  begin
    id 24
    name LeftFoot
    direction 8.31532e-007 -4.54478e-011 1
    length 6.49508
    axis 1.87233e-006 4.66016e-005 -8.6538e-006 xyz
    dof rx ry rz
  end
  begin
    id 25
    name LeftToes
    direction 0.00818058 -0.00485161 0.999955
    length 3.85048
    axis 1.06247e-005 4.65869e-005 -8.65513e-006 xyz
    dof rx ry rz
  end
:hierarchy
  begin
    root RightUpLegDummy SpineDummy LeftUpLegDummy
    RightUpLegDummy RightUpLeg
    RightUpLeg RightLeg
    RightLeg RightFoot
    RightFoot RightToes
    SpineDummy Spine
    Spine Spine1
    Spine1 HEadDummy LeftShoulder1Dummy RightShoulderDummy
    HEadDummy HEad
    LeftShoulder1Dummy LeftShoulder1
    LeftShoulder1 LeftArm
    LeftArm LeftForeArm
    LeftForeArm LeftHand
    RightShoulderDummy RightShoulder
    RightShoulder RightArm
    RightArm RightForeArm
    RightForeArm RightHand
    LeftUpLegDummy LeftUpLeg
    LeftUpLeg LeftLeg
    LeftLeg LeftFoot
    LeftFoot LeftToes
  end

:SAMPLES-PER-SECOND 30
:FULLY-SPECIFIED
:DEGREES
193
root  -38.4969 33.3043 23.1654 21.3976 -69.7098 -14.1577
RightUpLeg  -26.8302 -5.87928 1.34616
RightLeg  19.2942 -0.886659 -0.248689
RightFoot  13.751 0.0911919 -0.3787
RightToes  -36.6805 -0.192524 -0.295613
Spine  7.03629 -1.59739 -1.04125
Spine1  13.2306 -3.19455 -2.35511
HEad  4.03797 -14.4745 18.0831
LeftShoulder1  0 -2.42657e-020 -4.95415e-022
LeftArm  -36.5698 -3.31645 -78.9944
LeftForeArm  57.1288 -13.4792 -2.38076
LeftHand  0.301328 -7.88706 -4.7431
RightShoulder  0 2.42657e-020 1.07489e-018
RightArm  -41.2062 -5.01262 77.62
RightForeArm  45.6594 19.7683 3.61031
RightHand  -0.0714028 21.1176 -0.0130505
LeftUpLeg  -25.8437 -0.458143 3.73239
LeftLeg  33.639 -5.01706 -2.88971
LeftFoot  -6.25212 0.0264048 0.483467
LeftToes  -6.49934 1.33192e-006 1.13262e-007
194
root  -38.0965 33.3795 23.2747 23.2543 -70.639 -15.8437
RightUpLeg  -26.4893 -6.49177 1.87998
RightLeg  19.7103 -1.45699 -0.419576
RightFoot  10.5089 0.0721315 -0.406746
RightToes  -36.6761 -0.19249 -0.295586
Spine  7.10326 -1.56158 -1.17722
Spine1  13.358 -3.04444 -2.691
HEad  6.01308 -12.7285 16.2847
LeftShoulder1  0 -2.42657e-020 -4.95415e-022
LeftArm  -37.976 -3.18829 -78.1954
LeftForeArm  58.4673 -12.4053 -2.17929
LeftHand  0.28828 -7.69816 -4.6569
RightShoulder  0 2.42657e-020 1.07489e-018
RightArm  -37.7606 -5.09559 79.1559
RightForeArm  46.3997 20.2227 3.69998
RightHand  0.034822 21.8608 0.550483
LeftUpLeg  -26.1869 0.520081 3.6061
LeftLeg  33.0233 -5.01989 -2.82008
LeftFoot  -5.53634 0.0203486 0.420838
LeftToes  -5.73439 1.33192e-006 1.13262e-007
195
root  -37.7015 33.4585 23.3391 24.7809 -71.339 -17.2182
RightUpLeg  -25.7528 -7.4192 2.43192
RightLeg  20.8207 -1.85902 -0.574729
RightFoot  8.44206 0.0565564 -0.388708
RightToes  -38.1144 -0.203598 -0.304225
Spine  7.17818 -1.40735 -1.31777
Spine1  13.487 -2.62516 -3.05677
HEad  8.24686 -10.8755 14.3856
LeftShoulder1  0 -2.42657e-020 -4.95415e-022
LeftArm  -38.8712 -3.12698 -77.6126
LeftForeArm  59.7478 -12.0789 -2.11651
LeftHand  0.282609 -7.70081 -4.5712
RightShoulder  0 2.42657e-020 1.07489e-018
RightArm  -34.3675 -4.92494 80.7418
RightForeArm  47.4315 20.8799 3.83067
RightHand  0.16335 22.7311 1.18297
LeftUpLeg  -26.5515 1.44867 3.49548
LeftLeg  32.3954 -5.28644 -2.89337
LeftFoot  -4.60939 0.0147227 0.365805
LeftToes  -5.6026 1.33192e-006 1.13262e-007
196
root  -37.2986 33.5138 23.3895 25.4204 -71.7016 -17.7281
RightUpLeg  -24.6467 -9.25627 2.83481
RightLeg  22.2556 -1.26394 -0.427125
RightFoot  7.52064 0.0413006 -0.250812
RightToes  -41.8965 -0.233808 -0.325583
Spine  7.24796 -1.17719 -1.49041
Spine1  13.5803 -2.01956 -3.51914
HEad  9.87076 -9.02395 13.0761
LeftShoulder1  0 -2.42657e-020 -4.95415e-022
LeftArm  -39.0657 -3.0633 -77.2798
LeftForeArm  60.039 -12.4597 -2.18594
LeftHand  0.267981 -7.80677 -4.29969
RightShoulder  0 2.42657e-020 1.07489e-018
RightArm  -31.2715 -4.67735 82.3293
RightForeArm  47.84 21.7784 4.01289
RightHand  0.314899 23.4934 1.8848
LeftUpLeg  -26.9343 2.26274 3.19203
LeftLeg  31.7402 -5.82348 -3.09961
LeftFoot  -3.6503 0.0102058 0.320266
LeftToes  -4.90864 1.33192e-006 1.13262e-007
197
root  -36.9204 33.5486 23.3596 26.2413 -72.4546 -18.1465
RightUpLeg  -23.2124 -8.85731 2.69992
RightLeg  23.6282 -2.3482 -0.855027
RightFoot  5.51689 0.0317262 -0.280885
RightToes  -40.0734 -0.219069 -0.315536
Spine  7.18499 -0.647323 -1.76602
Spine1  13.3939 -0.798264 -4.13502
HEad  10.3008 -7.70897 12.7776
LeftShoulder1  0 -2.42657e-020 -4.95415e-022
LeftArm  -38.3809 -2.93238 -77.0638
LeftForeArm  59.826 -13.1768 -2.31891
LeftHand  0.211531 -8.06327 -3.37339
RightShoulder  0 2.42657e-020 1.07489e-018
RightArm  -27.8079 -4.28197 83.7268
RightForeArm  46.7789 22.7951 4.22445
RightHand  0.424037 23.5559 2.4041
LeftUpLeg  -27.3723 4.09016 2.68701
LeftLeg  30.8655 -6.91319 -3.54111
LeftFoot  -2.64477 0.00655667 0.284024
LeftToes  -5.36245 1.33192e-006 1.13262e-007
198
root  -36.4986 33.5503 23.3395 25.6218 -72.1333 -17.2371
RightUpLeg  -21.3906 -10.3735 2.55487
RightLeg  25.1181 -3.57967 -1.40818
RightFoot  3.20304 0.0165908 -0.215794
RightToes  -41.2747 -0.228745 -0.314997
Spine  7.2187 -0.319629 -1.94007
Spine1  13.3662 0.0324971 -4.59682
HEad  9.86563 -7.13807 13.0236
LeftShoulder1  0 -2.42657e-020 -4.95415e-022
LeftArm  -36.9851 -2.98513 -77.0717
LeftForeArm  56.2914 -14.6667 -2.60437
LeftHand  0.278499 -8.17004 -4.27164
RightShoulder  0 2.42657e-020 1.07489e-018
RightArm  -24.8454 -3.69617 84.684
RightForeArm  45.2096 24.4644 4.57868
RightHand  0.551433 23.691 2.99949
LeftUpLeg  -28.1238 4.06358 2.27698
LeftLeg  30.2738 -7.20054 -3.59405
LeftFoot  -1.81241 0.00328467 0.20765
LeftToes  -4.20112 1.33192e-006 1.13262e-007
199
root  -36.0544 33.5407 23.2806 24.7922 -71.4621 -16.1504
RightUpLeg  -19.1997 -11.9434 2.4194
RightLeg  26.3142 -4.00759 -1.67371
RightFoot  1.26698 0.00480597 -0.0570727
RightToes  -40.4212 -0.226848 -0.318858
Spine  7.23107 0.0224123 -2.02439
Spine1  13.3005 0.883946 -4.86878
HEad  8.79951 -7.10116 13.2875
LeftShoulder1  0 -2.42657e-020 -4.95415e-022
LeftArm  -35.1858 -3.1992 -77.3854
LeftForeArm  54.0846 -15.6082 -2.78647
LeftHand  0.230255 -8.23316 -3.57136
RightShoulder  0 2.42657e-020 1.07489e-018
RightArm  -23.0698 -2.75111 85.1688
RightForeArm  40.545 26.5117 5.03013
RightHand  0.730407 23.1987 3.92844
LeftUpLeg  -28.9776 3.95173 1.87719
LeftLeg  29.8348 -7.86542 -3.848
LeftFoot  -0.65674 0.000493468 0.0860924
LeftToes  -4.31452 1.33192e-006 1.13262e-007
200
root  -35.5833 33.5253 23.1912 23.6665 -70.8175 -14.8317
RightUpLeg  -16.6682 -13.197 2.12969
RightLeg  27.1398 -4.4723 -1.94322
RightFoot  -0.490794 -0.00111069 0.118394
RightToes  -40.6451 -0.223657 -0.322627
Spine  7.18257 0.372373 -2.12274
Spine1  13.1378 1.7472 -5.16308
HEad  7.56219 -7.24662 13.68
LeftShoulder1  0 -2.42657e-020 -4.95415e-022
LeftArm  -33.7426 -3.31655 -77.7611
LeftForeArm  51.4093 -16.5684 -2.9745
LeftHand  0.237465 -8.1137 -3.72033
RightShoulder  0 2.42657e-020 1.07489e-018
RightArm  -21.571 -1.46868 85.2332
RightForeArm  33.8568 29.0972 5.62334
RightHand  0.830541 21.795 4.68335
LeftUpLeg  -29.7192 3.8179 1.40458
LeftLeg  29.1851 -8.45461 -4.0156
LeftFoot  0.492944 0.000255315 -0.0593605
LeftToes  -3.65927 1.33192e-006 1.13262e-007
201
root  -35.0939 33.494 23.0698 22.2471 -70.3305 -13.4427
RightUpLeg  -13.8235 -13.8123 1.72729
RightLeg  27.8328 -5.51499 -2.47294
RightFoot  -2.02173 -0.00098219 0.321995
RightToes  -41.202 -0.228155 -0.321811
Spine  7.12603 0.744434 -2.29448
Spine1  12.958 2.66496 -5.61029
HEad  6.83951 -7.50012 14.0997
LeftShoulder1  0 -2.42657e-020 -4.95415e-022
LeftArm  -32.3571 -3.27388 -77.9388
LeftForeArm  49.2848 -17.4717 -3.15217
LeftHand  0.28981 -8.27596 -4.3778
RightShoulder  0 2.42657e-020 1.07489e-018
RightArm  -20.1897 0.500922 85.0407
RightForeArm  28.1237 31.5295 6.20705
RightHand  0.785747 20.6335 4.68598
LeftUpLeg  -30.2298 3.64733 0.910675
LeftLeg  28.4854 -8.78722 -4.04179
LeftFoot  1.54658 0.00276507 -0.204871
LeftToes  -2.33343 1.33192e-006 1.13262e-007
202
root  -34.5794 33.4351 22.9188 20.6042 -69.9435 -11.9424
RightUpLeg  -10.9061 -13.6112 1.37809
RightLeg  28.4865 -6.5402 -3.01885
RightFoot  -3.34499 0.00505597 0.550821
RightToes  -39.2812 -0.212766 -0.311026
Spine  7.00161 1.08683 -2.51295
Spine1  12.6436 3.50217 -6.10895
HEad  6.88199 -7.82064 14.5321
LeftShoulder1  0 -2.42657e-020 -4.95415e-022
LeftArm  -31.4554 -3.04267 -77.9514
LeftForeArm  48.2807 -18.0496 -3.26609
LeftHand  0.27348 -8.11297 -4.22842
RightShoulder  0 2.42657e-020 1.07489e-018
RightArm  -19.9115 3.00893 84.7231
RightForeArm  21.0084 33.4601 6.69133
RightHand  0.908487 19.1692 5.74816
LeftUpLeg  -30.7058 3.64017 0.285639
LeftLeg  27.9635 -9.29011 -4.16875
LeftFoot  2.84546 0.010309 -0.415082
LeftToes  -2.6863 1.33192e-006 1.13262e-007
203
root  -33.9939 33.3488 22.7224 18.8294 -69.5389 -10.3269
RightUpLeg  -8.30182 -13.8114 1.08638
RightLeg  29.3736 -6.60138 -3.17194
RightFoot  -4.11575 0.0107644 0.677239
RightToes  -38.7855 -0.208855 -0.308159
Spine  6.82327 1.31885 -2.739
Spine1  12.2278 4.11579 -6.64641
HEad  7.85362 -8.31954 15.1568
LeftShoulder1  0 -2.42657e-020 -4.95415e-022
LeftArm  -30.9716 -2.70126 -77.7082
LeftForeArm  47.6281 -18.2947 -3.31498
LeftHand  0.293545 -7.96228 -4.58987
RightShoulder  0 2.42657e-020 1.07489e-018
RightArm  -20.745 6.1201 84.5059
RightForeArm  14.9289 34.8098 7.0404
RightHand  1.16939 17.8323 7.81638
LeftUpLeg  -31.5176 4.71807 -0.66193
LeftLeg  27.793 -10.6414 -4.72789
LeftFoot  4.1274 0.0257783 -0.715391
LeftToes  -1.63286 1.33192e-006 1.13262e-007
204
root  -33.4112 33.2274 22.4946 17.0076 -69.7211 -9.01624
RightUpLeg  -5.6342 -13.3698 0.784935
RightLeg  30.3809 -5.78384 -2.90911
RightFoot  -4.88361 0.0142523 0.71187
RightToes  -39.6122 -0.215392 -0.312921
Spine  6.59252 1.71662 -3.05134
Spine1  11.7333 4.99703 -7.24902
HEad  9.84857 -9.91348 16.2485
LeftShoulder1  0 -2.42657e-020 -4.95415e-022
LeftArm  -30.0024 -2.11226 -77.0933
LeftForeArm  47.2627 -18.0224 -3.26243
LeftHand  0.312849 -8.18647 -4.74355
RightShoulder  0 2.42657e-020 1.07489e-018
RightArm  -23.0012 8.88694 84.6532
RightForeArm  10.2648 35.894 7.3276
RightHand  1.32368 16.8583 9.28841
LeftUpLeg  -31.8007 4.47391 -1.10725
LeftLeg  27.408 -10.3325 -4.51066
LeftFoot  5.12547 0.0385325 -0.860902
LeftToes  -1.27842 1.33192e-006 1.13262e-007
205
root  -32.7966 33.0774 22.2339 14.7281 -69.6451 -7.27338
RightUpLeg  -3.07533 -13.0645 0.479251
RightLeg  31.2044 -2.34681 -1.23204
RightFoot  -5.07016 0.000674952 0.392848
RightToes  -43.2716 -0.245131 -0.332847
Spine  6.25355 1.82389 -3.31358
Spine1  11.106 5.16197 -7.64462
HEad  12.2036 -12.7806 17.5807
LeftShoulder1  0 -2.42657e-020 -4.95415e-022
LeftArm  -29.5086 -0.973472 -76.191
LeftForeArm  48.7578 -17.1895 -3.09851
LeftHand  0.314196 -8.53673 -4.58154
RightShoulder  0 2.42657e-020 1.07489e-018
RightArm  -24.6744 10.5619 84.9686
RightForeArm  5.07579 38.7448 8.12681
RightHand  1.26388 15.6674 9.54105
LeftUpLeg  -32.1773 4.80699 -1.82335
LeftLeg  27.0274 -10.6845 -4.57835
LeftFoot  6.20965 0.0597682 -1.10185
LeftToes  -0.245115 1.33192e-006 1.13262e-007
206
root  -32.0871 32.9011 21.96 12.3302 -69.9591 -5.61336
RightUpLeg  -0.912032 -11.9655 0.205889
RightLeg  32.3439 2.79644 1.51631
RightFoot  -4.59138 -0.0193122 -0.104199
RightToes  -48.8571 -0.292816 -0.359498
Spine  5.91538 1.89774 -3.55079
Spine1  10.4933 5.21278 -8.05167
HEad  14.0211 -16.8137 19.274
LeftShoulder1  0 -2.42657e-020 -4.95415e-022
LeftArm  -30.2872 0.809931 -75.1467
LeftForeArm  50.5001 -16.4195 -2.94759
LeftHand  0.377628 -9.0269 -5.15498
RightShoulder  0 2.42657e-020 1.07489e-018
RightArm  -26.3459 11.4587 85.5863
RightForeArm  0.201439 42.321 9.22799
RightHand  1.36933 14.6076 11.0283
LeftUpLeg  -32.4117 4.81872 -2.42389
LeftLeg  26.5833 -10.4623 -4.38984
LeftFoot  7.53152 0.0876839 -1.33213
LeftToes  -0.61737 1.33192e-006 1.13262e-007
207
root  -31.3601 32.7068 21.6333 9.85439 -70.525 -3.95323
RightUpLeg  0.985976 -9.7182 0.325136
RightLeg  33.2539 5.60324 3.15938
RightFoot  -4.48126 -0.0293424 -0.372438
RightToes  -51.5457 -0.316642 -0.370641
Spine  5.58201 1.87414 -3.72815
Spine1  9.89717 5.06517 -8.42457
HEad  15.2552 -21.6274 21.1547
LeftShoulder1  0 -2.42657e-020 -4.95415e-022
LeftArm  -32.0281 3.68882 -74.0677
LeftForeArm  53.2236 -15.5377 -2.77473
LeftHand  0.24594 -8.79291 -3.5708
RightShoulder  0 2.42657e-020 1.07489e-018
RightArm  -25.9913 11.1921 85.7534
RightForeArm  0.0524677 46.9191 10.8623
RightHand  1.96301 16.6497 13.731
LeftUpLeg  -32.4617 4.82649 -2.86406
LeftLeg  25.848 -10.0024 -4.05068
LeftFoot  8.95307 0.119796 -1.53008
LeftToes  -1.31821 1.33192e-006 1.13262e-007
